<?xml version="1.0" standalone="no"?>
<!DOCTYPE svg PUBLIC "-//W3C//DTD SVG 20010904//EN"
 "http://www.w3.org/TR/2001/REC-SVG-20010904/DTD/svg10.dtd">
<svg version="1.0" xmlns="http://www.w3.org/2000/svg"
 width="411.000000pt" height="411.000000pt" viewBox="0 0 411.000000 411.000000"
 preserveAspectRatio="xMidYMid meet">
<metadata>
Created by potrace 1.11, written by Peter Selinger 2001-2013
</metadata>
<g transform="translate(0.000000,411.000000) scale(0.100000,-0.100000)"
fill="#000000" stroke="none">
<path d="M2720 3303 c-139 -8 -298 -49 -390 -101 -123 -71 -230 -174 -275
-266 -32 -65 -30 -90 6 -94 30 -3 57 11 153 81 78 57 206 122 256 131 19 3 46
8 60 11 162 33 255 22 329 -40 87 -74 112 -243 53 -369 -36 -76 -57 -99 -85
-90 -69 22 -179 -15 -205 -68 -10 -23 -10 -33 2 -62 16 -38 38 -54 109 -76 27
-8 47 -18 45 -21 -2 -3 2 -12 8 -20 11 -14 38 -95 104 -309 51 -164 91 -229
164 -267 49 -25 164 -12 242 28 65 32 169 124 218 192 42 58 87 165 91 215 3
58 -21 132 -43 132 -26 0 -32 -7 -109 -115 -122 -172 -171 -215 -220 -192 -13
6 -23 13 -23 17 0 3 -9 16 -20 28 -11 12 -34 52 -52 89 -28 63 -128 271 -135
283 -2 3 9 13 24 22 91 54 197 191 219 281 2 9 7 27 10 40 8 29 9 130 2 187
-20 153 -117 266 -273 319 -65 21 -192 37 -265 34z"/>
<path d="M1605 3068 c-45 -25 -70 -102 -80 -243 -3 -38 -8 -104 -11 -145 -3
-41 -7 -93 -9 -115 -1 -22 -5 -71 -9 -110 -4 -38 -9 -99 -12 -135 -3 -36 -7
-90 -9 -120 -3 -30 -7 -85 -9 -122 -9 -127 -92 -230 -204 -251 -47 -9 -107 20
-110 53 0 3 -5 18 -11 33 -9 24 -22 99 -23 132 -1 59 20 335 28 375 12 61 12
302 -1 350 -28 106 -98 187 -185 214 -103 32 -256 -8 -347 -92 -37 -34 -86
-97 -89 -114 -1 -5 -3 -9 -4 -10 -1 -2 -4 -29 -5 -60 -6 -111 47 -124 135 -32
68 72 103 90 141 74 34 -15 52 -41 66 -98 13 -52 14 -163 2 -227 -5 -26 -11
-63 -14 -83 -3 -21 -7 -50 -9 -67 -2 -16 -7 -45 -10 -62 -41 -227 -37 -318 21
-453 44 -100 144 -170 244 -171 106 0 216 31 306 87 57 36 59 35 62 -42 l2
-52 -58 -32 c-32 -18 -78 -44 -103 -58 -308 -171 -454 -302 -453 -406 2 -86
68 -183 154 -223 90 -42 168 -49 334 -29 112 14 254 110 326 221 55 86 105
221 124 333 3 17 8 47 11 65 3 17 6 48 6 67 0 33 6 39 92 97 50 34 106 74 125
90 63 52 150 148 168 185 22 46 33 48 34 6 3 -83 20 -213 29 -213 1 0 3 -8 5
-17 6 -35 47 -88 72 -94 25 -7 96 10 117 27 6 5 30 23 54 40 68 48 89 114 69
214 -8 37 -14 75 -23 140 -3 28 -7 52 -9 55 -3 6 -18 109 -17 125 0 20 15 221
18 250 20 191 20 345 -2 459 -2 11 -10 27 -19 35 -13 13 -18 13 -49 -2 -84
-39 -137 -167 -201 -478 -2 -9 -6 -40 -10 -69 -4 -29 -9 -62 -11 -74 -5 -28
-16 -131 -19 -181 -1 -22 -3 -53 -4 -70 l-2 -30 -14 33 c-22 50 -49 42 -101
-31 -20 -27 -50 -62 -66 -75 -17 -14 -36 -32 -43 -39 -8 -7 -18 -13 -23 -13
-6 0 -12 -4 -14 -8 -3 -10 -128 -92 -139 -92 -3 0 -5 51 -3 113 2 61 6 254 8
427 3 174 9 327 15 342 16 43 25 109 25 190 -1 104 -35 178 -94 202 -46 18
-136 21 -165 4z m612 -1120 c-3 -7 -5 -2 -5 12 0 14 2 19 5 13 2 -7 2 -19 0
-25z m-771 -656 c-14 -128 -57 -237 -110 -277 -53 -39 -188 -24 -242 26 -47
44 -25 97 61 151 50 31 286 158 293 158 3 0 1 -26 -2 -58z"/>
</g>
</svg>
